<svg xmlns="http://www.w3.org/2000/svg" xmlns:xlink="http://www.w3.org/1999/xlink" width="500" zoomAndPan="magnify" viewBox="0 0 375 374.999991" height="500" preserveAspectRatio="xMidYMid meet" version="1.0"><defs><clipPath id="6d00e78dc5"><path d="M 211 204 L 283 204 L 283 288 L 211 288 Z M 211 204 " clip-rule="nonzero"/></clipPath><clipPath id="a6d0d80148"><path d="M 277.429688 197.230469 L 288.585938 276.703125 L 211.339844 287.542969 L 200.1875 208.074219 Z M 277.429688 197.230469 " clip-rule="nonzero"/></clipPath><clipPath id="d32a9e7f50"><path d="M 277.429688 197.230469 L 288.585938 276.703125 L 211.339844 287.542969 L 200.1875 208.074219 Z M 277.429688 197.230469 " clip-rule="nonzero"/></clipPath></defs><path fill="#000000" d="M 174.234375 93.089844 C 129.074219 98.09375 92.273438 134.542969 86.824219 179.640625 C 86.472656 182.472656 86.242188 185.316406 86.132812 188.167969 C 86.023438 191.019531 86.039062 193.871094 86.171875 196.722656 C 86.308594 199.574219 86.566406 202.417969 86.945312 205.246094 C 87.324219 208.074219 87.824219 210.882812 88.445312 213.667969 C 89.066406 216.457031 89.800781 219.210938 90.660156 221.933594 C 91.515625 224.65625 92.484375 227.339844 93.574219 229.980469 C 94.660156 232.617188 95.855469 235.207031 97.164062 237.746094 C 98.472656 240.28125 99.886719 242.757812 101.40625 245.175781 C 102.925781 247.589844 104.546875 249.9375 106.269531 252.214844 C 107.992188 254.492188 109.808594 256.691406 111.71875 258.8125 C 113.628906 260.933594 115.625 262.96875 117.710938 264.917969 C 119.792969 266.867188 121.957031 268.726562 124.203125 270.488281 C 126.445312 272.253906 128.761719 273.917969 131.148438 275.484375 C 133.535156 277.050781 135.984375 278.511719 138.496094 279.867188 C 141.007812 281.222656 143.574219 282.46875 146.191406 283.601562 C 148.808594 284.738281 151.472656 285.761719 154.179688 286.667969 C 159.164062 287.464844 160.753906 284.375 160.753906 281.691406 L 160.753906 264.851562 C 133.167969 270.84375 127.296875 251.511719 127.296875 251.511719 C 122.730469 239.953125 116.242188 236.867188 116.242188 236.867188 C 107.175781 230.6875 116.949219 230.894531 116.949219 230.894531 C 126.902344 231.597656 132.183594 241.152344 132.183594 241.152344 C 140.847656 256.292969 155.484375 251.808594 161.15625 249.417969 C 162.054688 242.945312 164.683594 238.558594 167.433594 236.070312 C 145.289062 233.582031 122.117188 225.011719 122.117188 187.070312 C 122.117188 176.015625 125.902344 167.152344 132.375 160.082031 C 131.378906 157.589844 127.890625 147.234375 133.367188 133.785156 C 133.367188 133.785156 141.734375 131.09375 160.753906 143.949219 C 168.90625 141.753906 177.207031 140.65625 185.648438 140.65625 C 194.089844 140.65625 202.390625 141.753906 210.542969 143.949219 C 229.574219 131.09375 237.929688 133.785156 237.929688 133.785156 C 243.398438 147.234375 239.917969 157.589844 238.921875 160.082031 C 245.394531 167.132812 249.179688 176.015625 249.179688 187.070312 C 249.179688 225.113281 225.875 233.480469 203.675781 235.96875 C 207.257812 239.058594 210.542969 245.136719 210.542969 254.394531 L 210.542969 281.691406 C 210.542969 284.375 212.132812 287.5625 217.21875 286.667969 C 218.660156 286.183594 220.09375 285.667969 221.511719 285.117188 C 222.933594 284.570312 224.339844 283.988281 225.730469 283.375 C 227.125 282.757812 228.503906 282.113281 229.867188 281.4375 C 231.230469 280.757812 232.578125 280.050781 233.910156 279.3125 C 235.242188 278.574219 236.554688 277.804688 237.851562 277.007812 C 239.144531 276.207031 240.421875 275.378906 241.679688 274.519531 C 242.941406 273.664062 244.175781 272.777344 245.394531 271.863281 C 246.613281 270.949219 247.808594 270.007812 248.980469 269.039062 C 250.15625 268.070312 251.308594 267.074219 252.4375 266.050781 C 253.566406 265.03125 254.671875 263.984375 255.75 262.910156 C 256.832031 261.839844 257.886719 260.742188 258.917969 259.621094 C 259.949219 258.5 260.953125 257.355469 261.929688 256.191406 C 262.910156 255.023438 263.859375 253.835938 264.785156 252.625 C 265.707031 251.414062 266.601562 250.183594 267.46875 248.929688 C 268.335938 247.679688 269.175781 246.410156 269.984375 245.117188 C 270.792969 243.828125 271.574219 242.519531 272.320312 241.195312 C 273.070312 239.871094 273.789062 238.527344 274.476562 237.167969 C 275.164062 235.8125 275.820312 234.4375 276.445312 233.050781 C 277.070312 231.660156 277.664062 230.257812 278.222656 228.84375 C 278.785156 227.425781 279.3125 226 279.804688 224.558594 C 280.300781 223.117188 280.761719 221.667969 281.191406 220.207031 C 281.621094 218.746094 282.015625 217.277344 282.378906 215.796875 C 282.738281 214.316406 283.066406 212.832031 283.359375 211.335938 C 283.652344 209.84375 283.910156 208.34375 284.136719 206.835938 C 284.359375 205.332031 284.550781 203.820312 284.703125 202.304688 C 284.859375 200.789062 284.980469 199.273438 285.066406 197.753906 C 285.152344 196.234375 285.203125 194.710938 285.21875 193.1875 C 285.234375 191.664062 285.214844 190.144531 285.164062 188.621094 C 285.109375 187.101562 285.019531 185.582031 284.898438 184.0625 C 284.773438 182.546875 284.617188 181.03125 284.421875 179.519531 C 284.230469 178.011719 284.003906 176.503906 283.742188 175.003906 C 283.480469 173.503906 283.183594 172.011719 282.855469 170.523438 C 282.523438 169.039062 282.160156 167.558594 281.761719 166.089844 C 281.363281 164.621094 280.933594 163.160156 280.46875 161.710938 C 280.003906 160.261719 279.507812 158.820312 278.976562 157.394531 C 278.445312 155.96875 277.882812 154.554688 277.285156 153.152344 C 276.691406 151.75 276.0625 150.363281 275.40625 148.992188 C 274.746094 147.617188 274.054688 146.261719 273.335938 144.921875 C 272.613281 143.578125 271.863281 142.253906 271.082031 140.949219 C 270.300781 139.640625 269.488281 138.355469 268.648438 137.085938 C 267.804688 135.816406 266.9375 134.566406 266.039062 133.335938 C 265.140625 132.105469 264.214844 130.898438 263.261719 129.710938 C 262.308594 128.523438 261.328125 127.359375 260.324219 126.214844 C 259.316406 125.074219 258.285156 123.957031 257.226562 122.859375 C 256.167969 121.765625 255.085938 120.695312 253.976562 119.648438 C 252.871094 118.605469 251.742188 117.585938 250.585938 116.589844 C 249.433594 115.597656 248.257812 114.632812 247.058594 113.691406 C 245.863281 112.753906 244.644531 111.839844 243.402344 110.957031 C 242.164062 110.074219 240.902344 109.21875 239.625 108.390625 C 238.347656 107.566406 237.050781 106.769531 235.734375 106.003906 C 234.417969 105.234375 233.085938 104.5 231.738281 103.792969 C 230.386719 103.089844 229.023438 102.414062 227.644531 101.769531 C 226.265625 101.128906 224.871094 100.515625 223.460938 99.9375 C 222.054688 99.359375 220.632812 98.8125 219.199219 98.296875 C 217.765625 97.785156 216.324219 97.300781 214.867188 96.855469 C 213.414062 96.40625 211.949219 95.992188 210.472656 95.613281 C 209 95.230469 207.519531 94.882812 206.027344 94.570312 C 204.539062 94.257812 203.042969 93.980469 201.539062 93.734375 C 200.035156 93.492188 198.53125 93.28125 197.015625 93.105469 C 195.503906 92.929688 193.988281 92.789062 192.46875 92.683594 C 190.953125 92.578125 189.429688 92.507812 187.910156 92.472656 C 186.386719 92.4375 184.867188 92.433594 183.34375 92.46875 C 181.820312 92.503906 180.300781 92.570312 178.78125 92.675781 C 177.261719 92.777344 175.746094 92.914062 174.234375 93.089844 Z M 174.234375 93.089844 " fill-opacity="1" fill-rule="nonzero"/><g clip-path="url(#6d00e78dc5)"><g clip-path="url(#a6d0d80148)"><g clip-path="url(#d32a9e7f50)"><path fill="#ffffff" d="M 234.039062 262.253906 C 240.316406 266.234375 247.714844 267.867188 255.15625 266.824219 C 263.453125 265.660156 270.800781 261.332031 275.84375 254.640625 C 280.886719 247.949219 283.023438 239.695312 281.855469 231.394531 C 280.691406 223.097656 276.367188 215.753906 269.675781 210.710938 C 255.863281 200.300781 236.15625 203.066406 225.746094 216.875 C 220.703125 223.566406 218.566406 231.820312 219.730469 240.117188 C 220.777344 247.5625 224.382812 254.222656 229.9375 259.160156 L 212.011719 282.9375 C 211.585938 283.507812 211.425781 284.191406 211.519531 284.84375 C 211.609375 285.492188 211.949219 286.109375 212.515625 286.539062 C 213.648438 287.390625 215.261719 287.164062 216.113281 286.03125 Z M 229.851562 219.96875 C 238.554688 208.421875 255.035156 206.109375 266.582031 214.8125 C 278.128906 223.519531 280.445312 239.996094 271.738281 251.546875 C 267.519531 257.140625 261.378906 260.761719 254.441406 261.734375 C 247.503906 262.707031 240.601562 260.921875 235.007812 256.703125 C 223.453125 247.996094 221.148438 231.515625 229.851562 219.96875 Z M 229.851562 219.96875 " fill-opacity="1" fill-rule="nonzero"/></g></g></g></svg>